PathFileType	4	(X/Y/Z)	TRC_missing_Z7
DataRate	CameraRate	NumFrames	NumMarkers	Units	OrigDataRate	OrigDataStartFrame	OrigNumFrames
100.00	100.00	       4	45	mm	100.00	1	       2609
Frame#	Time	T10			C7			CLAV			RACR1			LACR1			RPSI			LPSI			RASI			LASI			LTH2			LTH3			LTH1			RTH2			RTH3			RTH1			RLFC			RTB1			RTB3			RTB2			LLFC			LTB1			LTB3			LTB2			LLMAL			LCAL			RLMAL			RCAL			RMT5			RMT1			LMT5			LMT1			*31			*32			*33			*34			*35			*36			*37			*38			*39			*40			*41			*42			*43			*44			
		X1	Y1	Z1	X2	Y2	Z2	X3	Y3	Z3	X4	Y4	Z4	X5	Y5	Z5	X6	Y6	Z6	X7	Y7	X8	Y8	Z8	X9	Y9	Z9	X10	Y10	Z10	X11	Y11	Z11	X12	Y12	Z12	X13	Y13	Z13	X14	Y14	Z14	X15	Y15	Z15	X16	Y16	Z16	X17	Y17	Z17	X18	Y18	Z18	X19	Y19	Z19	X20	Y20	Z20	X21	Y21	Z21	X22	Y22	Z22	X23	Y23	Z23	X24	Y24	Z24	X25	Y25	Z25	X26	Y26	Z26	X27	Y27	Z27	X28	Y28	Z28	X29	Y29	Z29	X30	Y30	Z30	X31	Y31	Z31	X32	Y32	Z32	X33	Y33	Z33	X34	Y34	Z34	X35	Y35	Z35	X36	Y36	Z36	X37	Y37	Z37	X38	Y38	Z38	X39	Y39	Z39	X40	Y40	Z40	X41	Y41	Z41	X42	Y42	Z42	X43	Y43	Z43	X44	Y44	Z44	X45	Y45	Z45	
1	0.000000	714.914856	1225.196045	-694.012268	723.950684	1479.113403	-560.672913	732.093323	1316.321289	-470.923157	566.101501	1430.227661	-522.056396	901.644165	1414.468140	-563.461609	674.919922	1014.866638	-760.759949	762.759094	1012.573181	-751.762329	569.638428	964.957397	-539.326965	823.350342	971.470947	-511.493774	863.695435	720.691895	-470.724426	901.408508	774.357849	-519.260376	851.372131	860.482971	-496.726440	583.353516	676.786682	-593.722717	540.975037	751.237915	-604.943054	592.669189	789.162476	-543.241943	584.539612	488.899231	-732.362122	632.635925	373.359863	-742.921143	609.161438	311.897400	-795.870117	636.811768	262.190948	-813.761597	845.479187	509.807007	-463.255981	792.908447	399.836151	-419.021729	829.205994	333.953766	-437.875458	791.129639	279.902374	-435.765015	832.993469	81.649223	-494.337494	797.971924	33.319874	-554.155273	622.055298	118.414474	-947.133667	662.124695	100.503105	-1023.297913	611.444763	50.257992	-861.530945	685.900879	48.289356	-829.524597	837.058960	42.432529	-374.684113	766.186462	57.470757	-355.494720	-17.998020	11.869674	-1119.169922	1151.222168	12.637148	-1033.330933	-0.782934	12.092738	1.033926	1167.570801	12.819517	85.351433	920.642334	1053.270264	422.572021	920.625793	1056.538330	388.389740	274.489105	1060.143799	569.838013	0.000000	0.000000	0.000000	0.000000	0.000000	0.000000	0.000000	0.000000	0.000000	0.000000	0.000000	0.000000	0.000000	0.000000	0.000000	0.000000	0.000000	0.000000	0.000000	0.000000	0.000000	
2	0.010000	715.651428	1225.177979	-693.014343	724.892029	1479.216431	-559.945557	733.041443	1316.465454	-470.158875	567.018616	1430.373779	-521.155762	902.547180	1414.596802	-562.795044	675.365356	1014.930176	-759.768250	763.235840	1012.737793	-750.928162	570.431946	965.016663	-538.244263	824.140869	971.595642	-510.757050	863.819763	720.749146	-470.365936	901.640686	774.438477	-518.861816	851.937073	860.560242	-496.079132	584.078125	676.779541	-593.328552	541.657410	751.203918	-604.385193	593.455444	789.131226	-542.686523	585.033386	489.018250	-732.353760	633.035278	373.438141	-743.479675	609.459656	312.276306	-796.767944	637.030884	262.617950	-814.774658	845.543213	509.554779	-463.294586	792.910156	399.353851	-419.758728	829.157104	333.517334	-438.831116	791.039124	279.511566	-437.003113	832.915405	81.598099	-496.336212	797.968445	33.436924	-556.284912	622.088196	119.432564	-948.763123	662.199036	101.968498	-1025.050903	611.391968	50.383533	-863.439636	685.843567	48.251144	-831.536316	837.157715	42.284477	-376.618896	766.061890	57.193588	-357.389435	0.000000	0.000000	0.000000	0.000000	0.000000	0.000000	0.000000	0.000000	0.000000	0.000000	0.000000	0.000000	0.000000	0.000000	0.000000	0.000000	0.000000	0.000000	0.000000	0.000000	0.000000	-17.988047	11.981995	-1119.464233	1151.535767	12.609114	-1033.537720	-0.791652	12.041610	0.956185	1167.669800	12.501620	85.372948	921.441650	1055.021606	413.842377	922.283020	1061.146606	361.148071	271.272888	1036.757202	618.398987	
3	0.020000	716.535095	1225.161865	-691.837952	726.013428	1479.340454	-559.082153	734.174011	1316.638428	-469.249634	568.113708	1430.547241	-520.089539	903.625732	1414.754639	-561.994934	675.904785	1015.004150	-758.596558	763.811646	1012.934204	-749.941833	571.385315	965.087891	-536.965515	825.089478	971.741638	-509.885651	864.013367	720.789673	-469.962616	901.954285	774.525024	-518.390991	852.631714	860.638306	-495.319763	584.909668	676.772034	-592.799377	542.455139	751.169617	-603.681946	594.385559	789.105774	-541.997070	585.576843	489.148315	-732.262878	633.447693	373.522156	-744.056152	609.766968	312.736145	-797.760498	637.244812	263.133850	-815.912170	845.633850	509.244598	-463.407379	792.920288	398.778046	-420.692902	829.107727	332.995361	-440.025055	790.937988	279.044403	-438.539642	832.822754	81.536034	-498.792633	797.963928	33.570450	-558.898926	622.122009	120.688812	-950.672363	662.304077	103.801735	-1027.081909	611.331970	50.524876	-865.784729	685.781555	48.187889	-834.022827	837.266174	42.115833	-379.013031	765.904602	56.875278	-359.740234	922.056702	1057.126221	398.658722	922.741272	1062.616699	358.476379	279.454956	1058.540283	562.062744	0.000000	0.000000	0.000000	0.000000	0.000000	0.000000	0.000000	0.000000	0.000000	0.000000	0.000000	0.000000	-17.988146	11.981358	-1119.464233	1151.536133	12.609336	-1033.538208	-0.791563	12.041558	0.956481	1167.669678	12.500816	85.372742	921.441650	1055.021606	413.842377	922.283020	1061.146606	361.148071	0.000000	0.000000	0.000000	
4	0.030000	717.736633	1225.161133	-690.314880	727.509033	1479.509766	-557.941956	735.695679	1316.873657	-468.041504	569.370544	1430.744873	-518.877075	904.863892	1414.940796	-561.071716	676.656555	1015.096191	-757.069885	764.608887	1013.197510	-748.653931	572.686584	965.185364	-535.301392	826.379639	971.927063	-508.746796	864.290466	720.801819	-469.531372	902.358276	774.611877	-517.858459	853.453491	860.710571	-494.464813	585.822510	676.764709	-592.120422	543.349792	751.137939	-602.829468	595.442261	789.091064	-541.173706	586.143982	489.282898	-732.059326	633.842163	373.607117	-744.606934	610.059753	313.272949	-798.802063	637.431824	263.733429	-817.128906	845.755310	508.877716	-463.618256	792.941772	398.117401	-421.831207	829.062073	332.395264	-441.459869	790.830505	278.507629	-440.373962	832.717163	81.463539	-501.696381	797.958435	33.716057	-561.984863	622.153687	122.179924	-952.817627	662.443909	106.007545	-1029.334473	611.266968	50.676876	-868.556274	685.718262	48.094128	-836.979004	837.379211	41.932190	-381.862030	765.713989	56.525455	-362.544983	922.062256	1057.507080	394.219818	922.741760	1062.617676	358.474091	279.516357	1058.521851	561.966858	0.000000	0.000000	0.000000	0.000000	0.000000	0.000000	0.000000	0.000000	0.000000	0.000000	0.000000	0.000000	-17.988266	11.980603	-1119.464355	1151.536377	12.609599	-1033.538696	-0.791457	12.041497	0.956834	1167.669434	12.499863	85.372490	921.441650	1055.021606	413.842377	0.000000	0.000000	0.000000	0.000000	0.000000	0.000000	
